<?xml version="1.0" encoding="UTF-8" standalone="no"?>
<!-- Created with Inkscape (http://www.inkscape.org/) -->
<svg xmlns:dc="http://purl.org/dc/elements/1.1/" xmlns:cc="http://creativecommons.org/ns#" xmlns:rdf="http://www.w3.org/1999/02/22-rdf-syntax-ns#" xmlns:svg="http://www.w3.org/2000/svg" xmlns="http://www.w3.org/2000/svg" xmlns:xlink="http://www.w3.org/1999/xlink" xmlns:sodipodi="http://sodipodi.sourceforge.net/DTD/sodipodi-0.dtd" xmlns:inkscape="http://www.inkscape.org/namespaces/inkscape" width="137.28687" height="1090.3438" id="svg2" version="1.1" inkscape:version="0.47 r22583" sodipodi:docname="light.svg">
  <defs id="defs4">
    <linearGradient inkscape:collect="always" id="linearGradient4420">
      <stop style="stop-color:#ffffff;stop-opacity:1;" offset="0" id="stop4422"/>
      <stop style="stop-color:#ffffff;stop-opacity:0;" offset="1" id="stop4424"/>
    </linearGradient>
    <inkscape:path-effect effect="spiro" id="path-effect4237" is_visible="true"/>
    <inkscape:path-effect effect="spiro" id="path-effect4225" is_visible="true"/>
    <inkscape:path-effect effect="spiro" id="path-effect4204" is_visible="true"/>
    <linearGradient inkscape:collect="always" id="linearGradient4062">
      <stop style="stop-color:#000000;stop-opacity:1;" offset="0" id="stop4064"/>
      <stop style="stop-color:#000000;stop-opacity:0;" offset="1" id="stop4066"/>
    </linearGradient>
    <inkscape:path-effect effect="spiro" id="path-effect4060" is_visible="true"/>
    <linearGradient inkscape:collect="always" id="linearGradient4000">
      <stop style="stop-color:#ffffff;stop-opacity:1" offset="0" id="stop4002"/>
      <stop style="stop-color:#000000;stop-opacity:1" offset="1" id="stop4004"/>
    </linearGradient>
    <inkscape:path-effect effect="spiro" id="path-effect3997" is_visible="true"/>
    <linearGradient inkscape:collect="always" id="linearGradient3985">
      <stop style="stop-color:#000000;stop-opacity:1;" offset="0" id="stop3987"/>
      <stop id="stop3993" offset="0.3106418" style="stop-color:#333333;stop-opacity:1"/>
      <stop style="stop-color:#000000;stop-opacity:1" offset="1" id="stop3989"/>
    </linearGradient>
    <linearGradient inkscape:collect="always" id="linearGradient3840">
      <stop style="stop-color:#ffffff;stop-opacity:1;" offset="0" id="stop3842"/>
      <stop style="stop-color:#ffffff;stop-opacity:0;" offset="1" id="stop3844"/>
    </linearGradient>
    <inkscape:path-effect effect="spiro" id="path-effect3831" is_visible="true"/>
    <linearGradient inkscape:collect="always" id="linearGradient3809">
      <stop style="stop-color:#ffffff;stop-opacity:1" offset="0" id="stop3811"/>
      <stop style="stop-color:#b3b3b3;stop-opacity:1" offset="1" id="stop3813"/>
    </linearGradient>
    <inkscape:path-effect effect="spiro" id="path-effect3806" is_visible="true"/>
    <inkscape:path-effect effect="spiro" id="path-effect3802" is_visible="true"/>
    <inkscape:path-effect effect="spiro" id="path-effect3781" is_visible="true"/>
    <inkscape:perspective sodipodi:type="inkscape:persp3d" inkscape:vp_x="0 : 526.18109 : 1" inkscape:vp_y="0 : 1000 : 0" inkscape:vp_z="744.09448 : 526.18109 : 1" inkscape:persp3d-origin="372.04724 : 350.78739 : 1" id="perspective10"/>
    <radialGradient inkscape:collect="always" xlink:href="#linearGradient3809" id="radialGradient3815" cx="337.5" cy="74.613052" fx="337.5" fy="74.613052" r="18.847475" gradientTransform="matrix(1,0,0,1.6580468,0.22910768,-59.314041)" gradientUnits="userSpaceOnUse"/>
    <linearGradient inkscape:collect="always" xlink:href="#linearGradient3840" id="linearGradient3864" x1="315.9252" y1="132.96992" x2="345" y2="137.36218" gradientUnits="userSpaceOnUse"/>
    <filter inkscape:collect="always" id="filter3874" x="-0.021587564" width="1.0431751" y="-0.10831201" height="1.216624" color-interpolation-filters="sRGB">
      <feGaussianBlur inkscape:collect="always" stdDeviation="0.39644471" id="feGaussianBlur3876"/>
    </filter>
    <filter inkscape:collect="always" id="filter3971" x="-0.19118154" width="1.3823631" y="-0.1928255" height="1.385651" color-interpolation-filters="sRGB">
      <feGaussianBlur inkscape:collect="always" stdDeviation="7.9094964" id="feGaussianBlur3973"/>
    </filter>
    <linearGradient inkscape:collect="always" xlink:href="#linearGradient3985" id="linearGradient3991" x1="295.5" y1="1019.3622" x2="378" y2="1019.3622" gradientUnits="userSpaceOnUse" gradientTransform="translate(-273.98049,20.125)"/>
    <linearGradient inkscape:collect="always" xlink:href="#linearGradient4000" id="linearGradient4006" x1="313.21106" y1="924.86218" x2="328.21426" y2="925.57648" gradientUnits="userSpaceOnUse"/>
    <linearGradient inkscape:collect="always" xlink:href="#linearGradient4062" id="linearGradient4082" gradientUnits="userSpaceOnUse" x1="334.14285" y1="866.64789" x2="334.25" y2="886.29071"/>
    <filter inkscape:collect="always" id="filter4116" x="-0.044671636" width="1.0893433" y="-0.17056058" height="1.3411212" color-interpolation-filters="sRGB">
      <feGaussianBlur inkscape:collect="always" stdDeviation="0.8375932" id="feGaussianBlur4118"/>
    </filter>
    <filter inkscape:collect="always" id="filter4192" x="-0.16313097" width="1.3262619" y="-0.057656378" height="1.1153128" color-interpolation-filters="sRGB">
      <feGaussianBlur inkscape:collect="always" stdDeviation="2.7635278" id="feGaussianBlur4194"/>
    </filter>
    <filter inkscape:collect="always" id="filter4219" x="-0.018690081" width="1.0373802" y="-0.48750964" height="1.9750193" color-interpolation-filters="sRGB">
      <feGaussianBlur inkscape:collect="always" stdDeviation="0.60277797" id="feGaussianBlur4221"/>
    </filter>
    <filter inkscape:collect="always" id="filter4231" x="-0.8278386" width="2.6556773" y="-0.012176505" height="1.024353" color-interpolation-filters="sRGB">
      <feGaussianBlur inkscape:collect="always" stdDeviation="3.5459418" id="feGaussianBlur4233"/>
    </filter>
    <filter inkscape:collect="always" id="filter4364" x="-0.31714031" width="1.6342806" y="-0.23144595" height="1.4628919" color-interpolation-filters="sRGB">
      <feGaussianBlur inkscape:collect="always" stdDeviation="1.9459369" id="feGaussianBlur4366"/>
    </filter>
    <filter inkscape:collect="always" id="filter4404" x="-0.10427684" width="1.2085537" y="-0.086902201" height="1.1738044" color-interpolation-filters="sRGB">
      <feGaussianBlur inkscape:collect="always" stdDeviation="1.7433783" id="feGaussianBlur4406"/>
    </filter>
    <linearGradient inkscape:collect="always" xlink:href="#linearGradient3840" id="linearGradient4408" gradientUnits="userSpaceOnUse" gradientTransform="translate(-273.98049,20.125)" x1="325.71429" y1="9.5050402" x2="376.25" y2="10.219325"/>
    <linearGradient inkscape:collect="always" xlink:href="#linearGradient4420" id="linearGradient4426" x1="62.905079" y1="74.983643" x2="63.06448" y2="96.769356" gradientUnits="userSpaceOnUse"/>
  </defs>
  <sodipodi:namedview id="base" pagecolor="#ffffff" bordercolor="#666666" borderopacity="1.0" inkscape:pageopacity="0.0" inkscape:pageshadow="2" inkscape:zoom="0.98994949" inkscape:cx="-232.17151" inkscape:cy="910.48272" inkscape:document-units="px" inkscape:current-layer="layer1" showgrid="false" inkscape:snap-global="false" inkscape:window-width="1920" inkscape:window-height="1005" inkscape:window-x="0" inkscape:window-y="24" inkscape:window-maximized="1" showguides="true" inkscape:guide-bbox="true">
    <inkscape:grid type="xygrid" id="grid3771" empspacing="5" visible="true" enabled="true" snapvisiblegridlinesonly="true"/>
  </sodipodi:namedview>
  <g inkscape:label="Capa 1" inkscape:groupmode="layer" id="layer1" transform="translate(-273.95118,37.96875)">
    <path style="fill:url(#linearGradient3991);fill-opacity:1;fill-rule:evenodd;stroke:none" d="m 26.21875,1005.4375 c -2.493,0 -4.5,2.082 -4.5,4.6563 l 0,0.6874 c 0,1.8958 1.086742,3.5259 2.65625,4.25 -3.805067,0.2014 -13.014533,1.9875 -13.34375,4.9688 -1.54146,13.9589 -2.09668,52.5 0,52.5 l 105,0 c 2.09071,0 1.46346,-38.4297 0,-52.5 -0.33369,-3.2082 -9.32814,-4.9745 -13.21875,-5.0938 1.47084,-0.7625 2.5,-2.3035 2.5,-4.125 l 0,-0.6874 c 0,-2.5743 -2.007,-4.6563 -4.5,-4.6563 -22.403609,-2.9536 -46.496152,-3.4218 -74.59375,0 z" transform="translate(273.98049,-20.125)" id="rect3982" sodipodi:nodetypes="ccccsccsccccc"/>
    <path sodipodi:type="spiral" style="fill:none;stroke:#000000;stroke-width:2.29999995;stroke-linecap:butt;stroke-linejoin:miter;stroke-miterlimit:4;stroke-opacity:1;stroke-dasharray:none" id="path3975" sodipodi:cx="353.04831" sodipodi:cy="142.71982" sodipodi:expansion="13.2" sodipodi:revolution="17.490461" sodipodi:radius="17.145529" sodipodi:argument="-109.64066" sodipodi:t0="0.93673718" d="m 359.67315,139.809 c 2.29878,3.82179 0.64277,8.77798 -3.06993,11.00156 -4.66359,2.79309 -10.70335,0.7702 -13.40651,-3.76215 -3.38406,-5.674 -0.92037,-13.01282 4.59617,-16.28961 6.88353,-4.08877 15.77564,-1.09691 19.73677,5.59821 1.89302,3.19958 2.61073,7.01385 2.10912,10.69012" transform="translate(-36.127249,14.601716)"/>
    <path transform="matrix(-1,0,0,1,712.62721,14.60161)" d="m 359.59347,139.6796 c 2.3718,3.76297 0.82368,8.73944 -2.83206,11.03398 -4.59226,2.88233 -10.65707,0.99086 -13.44699,-3.47238 -3.49281,-5.58772 -1.18872,-12.95739 4.24418,-16.33993 6.77946,-4.2209 15.70941,-1.42234 19.79908,5.17185 1.70122,2.74305 2.53246,5.9793 2.43002,9.20119" sodipodi:t0="0.93743205" sodipodi:argument="-109.64066" sodipodi:radius="16.933186" sodipodi:revolution="17.473955" sodipodi:expansion="13.2" sodipodi:cy="142.71982" sodipodi:cx="353.04831" id="path3977" style="fill:none;stroke:#000000;stroke-width:2.29999995;stroke-linecap:butt;stroke-linejoin:miter;stroke-miterlimit:4;stroke-opacity:1;stroke-dasharray:none" sodipodi:type="spiral"/>
    <path style="fill:#000000;fill-opacity:1;fill-rule:evenodd;stroke:none" d="m 323.9375,140.375 6.09375,8.77602 0.0937,0 -9.09375,700.30178 -1.53125,0 c -2.493,0 -4.5,2.11941 -4.5,4.7784 -11.73669,3.42691 -10.30695,6.04093 -5.99995,10.19986 -0.48065,28.2384 -3.6356,121.4277 -1.5,121.4277 20.92859,2.50031 41.73121,0.88979 60,0 2.14929,0 -1.02992,-93.84617 -1.5,-121.4277 4.10253,-3.85169 4.5,-7.49554 -6.00005,-10.19986 0,-2.65899 -2.007,-4.7784 -4.5,-4.7784 l -1.5,0 -7.71875,-700.30178 6.15625,-8.77602 -28.5,0 5e-5,0 z" id="rect3755" sodipodi:nodetypes="ccccccccccccccccc"/>
    <path style="fill:#000000;fill-opacity:1;fill-rule:evenodd;stroke:none" d="m 318.1691,128.36218 38.99999,0 c 3.324,0 6.00001,2.676 6.00001,6.00001 0,3.324 -2.67601,6 -6.00001,6 l -38.99999,0 c -3.324,0 -6,-2.676 -6,-6 0,-3.32401 2.676,-6.00001 6,-6.00001 z" id="rect3774"/>
    <path style="fill:#000000;fill-rule:evenodd;stroke:none" d="M 63.625,-17.84375 C 62.57709,-8.4111579 61.974079,1.096769 60,10.375 55.725256,20.587291 49.650769,28.632484 41.03125,34.5 l -3,0 c -2.493,0 -4.5,2.50875 -4.5,5.625 l 0,3.75 c 0,0.389531 0.03405,0.758167 0.09375,1.125 l -2.96875,0 c -3.324,0 -6,2.675998 -6,6 C 17.04628,53.452578 -0.8509,52.203712 0,60 l 16.5,0 10.1875,93.1875 73.90625,0 9.5,-93.28125 L 126,60 c 3.28223,-6.279705 -17.08603,-7.611443 -23.34375,-9 0,-3.324002 -2.676,-6 -6,-6 l -3.21875,0 c 0.05975,-0.366833 0.09375,-0.735469 0.09375,-1.125 l 0,-3.75 c 0,-3.11625 -2.007,-5.625 -4.5,-5.625 l -3,0 c -9.902669,-6.121517 -15.220132,-15.271427 -18.75,-24 0.0054,-0.07378 -0.0063,-0.136527 -0.03125,-0.1875 0.02553,0.02169 0.0253,0.03461 0.0625,0.0625 C 64.969566,1.3464003 64.555693,-8.3444032 63.625,-17.84375 z m 3.5,28 c 0.01256,-0.0095 0.07731,0.04334 0.125,0.125 -0.07431,-0.06559 -0.134069,-0.11811 -0.125,-0.125 z M 20.28125,60 l 86.75,0 -12.84375,86.78125 -61.0625,0 L 20.28125,60 z" transform="translate(273.98049,-20.125)" id="rect3776"/>
    <path style="fill:#000000;stroke:#000000;stroke-width:1px;stroke-linecap:butt;stroke-linejoin:miter;stroke-opacity:1" d="m 330.12126,110.36218 15,0 -1.5,16.5 -12,0 -1.5,-16.5" id="path3800"/>
    <path style="fill:url(#radialGradient3815);fill-opacity:1;stroke:none" d="m 331.72911,110.89789 c -3.98525,-17.565935 -30,-59.999993 6,-61.499993 34.5,1.5 9,45 6,61.499993 l -12,0" id="path3804" sodipodi:nodetypes="cccc"/>
    <path sodipodi:type="arc" style="fill:url(#linearGradient4426);fill-opacity:1;fill-rule:evenodd;stroke:none" id="path4418" sodipodi:cx="63.30357" sodipodi:cy="86.415749" sodipodi:rx="11.875" sodipodi:ry="10.892858" d="m 75.17857,86.415749 c 0,6.015959 -5.316619,10.892857 -11.875,10.892857 -6.558382,0 -11.875,-4.876898 -11.875,-10.892857 0,-6.01596 5.316618,-10.892858 11.875,-10.892858 6.558381,0 11.875,4.876898 11.875,10.892858 z" transform="matrix(1.1203008,0,0,0.82786888,266.36502,-12.30373)"/>
    <path sodipodi:type="spiral" style="fill:none;stroke:#000000;stroke-width:1.1844995;stroke-linecap:butt;stroke-linejoin:miter;stroke-miterlimit:4;stroke-opacity:1;stroke-dasharray:none" id="path3817" sodipodi:cx="358.5" sodipodi:cy="141.86218" sodipodi:expansion="13.2" sodipodi:revolution="17.712486" sodipodi:radius="4.9248013" sodipodi:argument="-112.96825" sodipodi:t0="0.9333753" d="m 356.62653,141.21493 c 0.24989,-1.19436 1.50373,-1.8814 2.66254,-1.6367 1.45267,0.30676 2.28758,1.83303 1.98715,3.24309 -0.37537,1.7618 -2.22791,2.77354 -3.93878,2.40588 -2.13077,-0.45791 -3.35342,-2.70018 -2.90486,-4.77025 0.37867,-1.74754 1.81725,-3.09714 3.54335,-3.4916" transform="matrix(-1.6884768,0,0,1.6884768,972.65559,-99.576042)"/>
    <path transform="matrix(1.6884768,0,0,1.6884768,-297.65561,-99.575988)" d="m 356.62652,141.21495 c 0.24987,-1.19436 1.50371,-1.88142 2.66252,-1.63673 1.45267,0.30674 2.28761,1.833 1.9872,3.24307 -0.37535,1.7618 -2.22788,2.77356 -3.93876,2.40592 -2.13077,-0.45787 -3.35345,-2.70013 -2.90492,-4.77021 0.39575,-1.82648 1.94399,-3.20632 3.76245,-3.53656" sodipodi:t0="0.93299812" sodipodi:argument="-112.96825" sodipodi:radius="4.9511456" sodipodi:revolution="17.719645" sodipodi:expansion="13.2" sodipodi:cy="141.86218" sodipodi:cx="358.5" id="path3819" style="fill:none;stroke:#000000;stroke-width:1.1844995;stroke-linecap:butt;stroke-linejoin:miter;stroke-miterlimit:4;stroke-opacity:1;stroke-dasharray:none" sodipodi:type="spiral"/>
    <path transform="matrix(1.0000001,0,0,0.85377653,-3.591866e-5,20.085575)" style="fill:url(#linearGradient3864);fill-opacity:1;fill-rule:evenodd;stroke:none;filter:url(#filter3874)" d="m 320.4252,131.715 35.07479,0 c 2.493,0 4.5,-1.17837 4.5,1.25493 0,2.43331 -2.007,4.39226 -4.5,4.39226 l -35.07479,0 c -2.493,0 -4.5,-1.95895 -4.5,-4.39226 0,-2.4333 2.007,-1.25493 4.5,-1.25493 z" id="rect3856" sodipodi:nodetypes="ccsccsc"/>
    <path transform="matrix(-1.6884768,0,0,1.6884768,994.3545,-192.35504)" d="m 356.62653,141.21493 c 0.24989,-1.19436 1.50373,-1.8814 2.66254,-1.6367 1.45267,0.30676 2.28758,1.83303 1.98715,3.24309 -0.37537,1.7618 -2.22791,2.77354 -3.93878,2.40588 -2.13077,-0.45791 -3.35342,-2.70018 -2.90486,-4.77025 0.37867,-1.74754 1.81725,-3.09714 3.54335,-3.4916" sodipodi:t0="0.9333753" sodipodi:argument="-112.96825" sodipodi:radius="4.9248013" sodipodi:revolution="17.712486" sodipodi:expansion="13.2" sodipodi:cy="141.86218" sodipodi:cx="358.5" id="path3878" style="fill:none;stroke:#000000;stroke-width:1.1844995;stroke-linecap:butt;stroke-linejoin:miter;stroke-miterlimit:4;stroke-opacity:1;stroke-dasharray:none" sodipodi:type="spiral"/>
    <path sodipodi:type="spiral" style="fill:none;stroke:#000000;stroke-width:1.1844995;stroke-linecap:butt;stroke-linejoin:miter;stroke-miterlimit:4;stroke-opacity:1;stroke-dasharray:none" id="path3880" sodipodi:cx="358.5" sodipodi:cy="141.86218" sodipodi:expansion="13.2" sodipodi:revolution="17.719645" sodipodi:radius="4.9511456" sodipodi:argument="-112.96825" sodipodi:t0="0.93299812" d="m 356.62652,141.21495 c 0.24987,-1.19436 1.50371,-1.88142 2.66252,-1.63673 1.45267,0.30674 2.28761,1.833 1.9872,3.24307 -0.37535,1.7618 -2.22788,2.77356 -3.93876,2.40592 -2.13077,-0.45787 -3.35345,-2.70013 -2.90492,-4.77021 0.39575,-1.82648 1.94399,-3.20632 3.76245,-3.53656" transform="matrix(1.6884768,0,0,1.6884768,-319.76165,-192.31713)"/>
    <path transform="translate(9.3439111,4.0406102)" d="m 376.28181,88.424118 -40.61987,-25.758924 2.23256,47.892296 -5.18694,-47.818318 -36.05173,31.605848 34.15187,-33.869548 -47.18833,-8.480453 47.77362,5.583687 -22.79116,-42.1808 25.42086,40.832291 18.76822,-44.118143 -16.07432,45.333347 46.19475,-12.833626 -45.46522,15.697469 38.83569,28.114874 z" inkscape:randomized="0" inkscape:rounded="0" inkscape:flatsided="false" sodipodi:arg2="1.0969623" sodipodi:arg1="0.5989761" sodipodi:r2="3.4056396" sodipodi:r1="51.063313" sodipodi:cy="59.634769" sodipodi:cx="334.10794" sodipodi:sides="7" id="path3905" style="fill:#ffffff;fill-rule:evenodd;stroke:none;filter:url(#filter3971)" sodipodi:type="star"/>
    <path sodipodi:type="star" style="fill:#ffffff;fill-rule:evenodd;stroke:none" id="path3903" sodipodi:sides="7" sodipodi:cx="334.10794" sodipodi:cy="59.634769" sodipodi:r1="51.063313" sodipodi:r2="3.4056396" sodipodi:arg1="0.5989761" sodipodi:arg2="1.0969623" inkscape:flatsided="false" inkscape:rounded="0" inkscape:randomized="0" d="m 376.28181,88.424118 -40.61987,-25.758924 2.23256,47.892296 -5.18694,-47.818318 -36.05173,31.605848 34.15187,-33.869548 -47.18833,-8.480453 47.77362,5.583687 -22.79116,-42.1808 25.42086,40.832291 18.76822,-44.118143 -16.07432,45.333347 46.19475,-12.833626 -45.46522,15.697469 38.83569,28.114874 z" transform="translate(9.3439111,4.0406102)"/>
    <path style="fill:url(#linearGradient4006);fill-opacity:1;stroke:none;filter:url(#filter4192)" d="m 322.14286,870.57647 30,0 c 0.81731,40 3.11741,74.28571 0.35714,114.28571 -20.3846,5.42067 -27.1844,1.50178 -37.5,0 -3.49673,-4.41989 -2.46786,-122.67819 7.14286,-114.64286" id="path3995" sodipodi:nodetypes="ccccc"/>
    <path style="fill:url(#linearGradient4082);fill-opacity:1;stroke:none;filter:url(#filter4116)" d="m 316.42857,864.50504 c 13.22875,2.65131 26.89048,2.70475 41.07143,-0.35715 l 2.5,8.21429 c -16.5047,3.00941 -31.35072,2.70143 -45,0 l 2.5,-9.64286 -1.07143,1.78572" id="path4058" sodipodi:nodetypes="cccccc"/>
    <path style="fill:#000000;fill-rule:evenodd;stroke:none" d="m 314.67855,858.25499 c 15.93583,1.85138 28.2852,1.84088 45.64285,0.35714 2.493,0 3.78571,0.40071 3.78571,1.7857 0,1.385 1.20729,4.82142 -1.28571,4.82142 -14.61751,4.289 -32.37604,4.7299 -50.10713,-0.89286 -2.493,0 -2.71429,-2.36499 -2.71429,-3.74999 0,-1.38499 2.18557,-2.32141 4.67857,-2.32141 z" id="rect4079" sodipodi:nodetypes="ccsccsc"/>
    <path transform="translate(273.98049,-20.125)" style="fill:#000000;stroke:none;filter:url(#filter4219)" d="m 24.875006,1015.0347 c 26.277449,1.682 51.880379,1.3403 77.150394,0 -26.975713,3.6165 -52.152858,3.7067 -77.402932,-0.2525" id="path4202" sodipodi:nodetypes="ccc"/>
    <path style="fill:#ffffff;stroke:#000000;stroke-width:1px;stroke-linecap:butt;stroke-linejoin:miter;stroke-opacity:1;filter:url(#filter4231)" d="m 60.104077,171.68365 3.030457,0.50508 -1.262691,698.26794 -9.017405,0.13525 7.249639,-698.90827" id="path4223" inkscape:path-effect="#path-effect4225" inkscape:original-d="m 60.104077,171.68365 3.030457,0.50508 -1.262691,698.26794 -9.017405,0.13525 7.249639,-698.90827 z" transform="translate(273.98049,-20.125)" sodipodi:nodetypes="ccccc"/>
    <path transform="translate(273.98049,-20.125)" style="fill:#ffffff;stroke:none;filter:url(#filter4364)" d="m 52.142857,869.80861 -5.535714,3.03571 -1.964285,4.64287 c -5.366448,1.80264 -4.676414,4.21093 -0.535715,6.96428 l -0.535714,4.82143 7.499999,0.35714 -0.535714,-5 c 3.465573,-1.37581 1.447348,-3.36364 0.445073,-5.85641 -0.348052,-0.86565 0.211598,-2.26329 0.09064,-3.07216 l 4.464286,-4.28572 -3.392857,-1.96428" id="path4235" sodipodi:nodetypes="cccccccsccc"/>
    <path transform="translate(273.98049,-20.125)" style="fill:#000000;fill-rule:evenodd;stroke:none" d="m 58.353758,8.4808779 c 3.401143,-3.4687913 6.875995,-3.7680755 10.445437,0 1.198868,0 2.164022,0.886977 2.164022,1.9887381 0,1.10176 -0.965154,1.988738 -2.164022,1.988738 l -10.445437,0 c -1.198869,0 -2.164023,-0.886978 -2.164023,-1.988738 0,-1.1017611 0.965154,-1.9887381 2.164023,-1.9887381 z" id="rect4414" sodipodi:nodetypes="ccsccsc"/>
    <path style="fill:url(#linearGradient4408);fill-opacity:1;fill-rule:evenodd;stroke:none;filter:url(#filter4404)" d="M 63.5625,5.96875 C 60.34046,19.522728 54.92579,30.467577 46.1875,37.5 l -2.34375,0 c -1.92704,0 -3.46875,2.277203 -3.46875,5.125 l 0,3.4375 c 0,0.355974 0.0163,0.696018 0.0625,1.03125 l -2.28125,0 c -2.56939,0 -4.625,2.431099 -4.625,5.46875 -2.42887,0.925447 -5.94148,1.057349 -9.1875,1.375 l 23.517857,0.178571 c 2.934178,-1.777624 0.412358,-5.076042 1.139975,-5.425192 9.581805,-4.597855 6.074957,-8.266716 4.914438,-10.89731 L 64.46875,9.34375 C 64.166094,8.2157768 63.851811,7.1031774 63.5625,5.96875 z" transform="translate(273.98049,-20.125)" id="path3835" sodipodi:nodetypes="ccccccccccsccc"/>
  </g>
  <metadata>
    <rdf:RDF>
      <cc:Work>
        <dc:format>image/svg+xml</dc:format>
        <dc:type rdf:resource="http://purl.org/dc/dcmitype/StillImage"/>
        <cc:license rdf:resource="http://creativecommons.org/licenses/publicdomain/"/>
        <dc:publisher>
          <cc:Agent rdf:about="http://openclipart.org/">
            <dc:title>Open Clip Art Library</dc:title>
          </cc:Agent>
        </dc:publisher>
        <dc:title>Streetlight</dc:title>
        <dc:date>2012-01-14T19:23:40</dc:date>
        <dc:description>Farola de calle en fundicion</dc:description>
        <dc:source>http://openclipart.org/detail/167058/streetlight-by-roshellin</dc:source>
        <dc:creator>
          <cc:Agent>
            <dc:title>roshellin</dc:title>
          </cc:Agent>
        </dc:creator>
        <dc:subject>
          <rdf:Bag>
            <rdf:li>streetlight</rdf:li>
            <rdf:li>light</rdf:li>
            <rdf:li>street</rdf:li>
            <rdf:li>urban</rdf:li>
            <rdf:li>\n</rdf:li>
          </rdf:Bag>
        </dc:subject>
      </cc:Work>
      <cc:License rdf:about="http://creativecommons.org/licenses/publicdomain/">
        <cc:permits rdf:resource="http://creativecommons.org/ns#Reproduction"/>
        <cc:permits rdf:resource="http://creativecommons.org/ns#Distribution"/>
        <cc:permits rdf:resource="http://creativecommons.org/ns#DerivativeWorks"/>
      </cc:License>
    </rdf:RDF>
  </metadata>
</svg>